<svg xmlns="http://www.w3.org/2000/svg" viewBox="0 0 1200 1200" width="1200" height="1200">
  <defs>
    <radialGradient id="field01" cx="50%" cy="50%" r="50%">
      <stop offset="0%" stop-color="#ffffff" stop-opacity="0.13" />
      <stop offset="70%" stop-color="#ffffff" stop-opacity="0.03" />
      <stop offset="100%" stop-color="#ffffff" stop-opacity="0" />
    </radialGradient>
    <clipPath id="lens01">
      <circle cx="520" cy="520" r="230" />
    </clipPath>
  </defs>

  <circle cx="600" cy="600" r="520" fill="url(#field01)" />
  <circle cx="600" cy="600" r="440" fill="none" stroke="#ffffff" stroke-opacity="0.10" stroke-width="2" />

  <g stroke="#ffffff" stroke-opacity="0.22" stroke-width="6" stroke-linecap="round">
    <path d="M240 470 H960" />
    <path d="M240 560 H960" />
    <path d="M240 650 H960" />
    <path d="M240 740 H960" />
  </g>
  <g stroke="#ffffff" stroke-opacity="0.13" stroke-width="4" stroke-linecap="round">
    <path d="M330 430 V780" />
    <path d="M450 430 V780" />
    <path d="M570 430 V780" />
    <path d="M690 430 V780" />
    <path d="M810 430 V780" />
  </g>

  <g clip-path="url(#lens01)">
    <g stroke="#ffffff" stroke-opacity="0.85" stroke-width="7" stroke-linecap="round">
      <path d="M270 470 H780" />
      <path d="M270 560 H780" />
      <path d="M270 650 H780" />
      <path d="M270 740 H780" />
    </g>
    <g stroke="#ffffff" stroke-opacity="0.55" stroke-width="5" stroke-linecap="round">
      <path d="M330 400 V800" />
      <path d="M450 400 V800" />
      <path d="M570 400 V800" />
      <path d="M690 400 V800" />
    </g>
    <circle cx="470" cy="605" r="26" fill="#ffffff" fill-opacity="0.5" />
    <circle cx="612" cy="512" r="16" fill="#ffffff" fill-opacity="0.35" />
  </g>

  <circle cx="520" cy="520" r="230" fill="none" stroke="#ffffff" stroke-opacity="0.9" stroke-width="10" />
  <circle cx="520" cy="520" r="212" fill="none" stroke="#ffffff" stroke-opacity="0.25" stroke-width="3" />
  <path d="M686 686 L860 860" stroke="#ffffff" stroke-opacity="0.9" stroke-width="24" stroke-linecap="round" />
  <path d="M846 846 L906 906" stroke="#ffffff" stroke-opacity="0.55" stroke-width="34" stroke-linecap="round" />
</svg>
